<svg xmlns="http://www.w3.org/2000/svg" width="27.194" height="25.977" viewBox="0 0 27.194 25.977"><defs><style>.a{fill:#aaa;}</style></defs><path class="a" d="M25.8,8.7,18.375,7.62,15.057.9a1.63,1.63,0,0,0-2.918,0L8.819,7.62,1.393,8.7a1.623,1.623,0,0,0-.9,2.77L5.865,16.7,4.593,24.076a1.627,1.627,0,0,0,1.6,1.9,1.6,1.6,0,0,0,.754-.19L13.6,22.3l6.643,3.486A1.623,1.623,0,0,0,22.6,24.078L21.328,16.7,26.7,11.472a1.623,1.623,0,0,0-.9-2.77Zm-6.177,6.251-.919.894.217,1.262.99,5.756-5.182-2.719-1.135-.6,0-16.093L16.187,8.7l.567,1.148,1.269.185,5.8.844-4.193,4.078Z" transform="translate(0)"/></svg>