<svg xmlns="http://www.w3.org/2000/svg" xmlns:xlink="http://www.w3.org/1999/xlink" width="367.313" height="48.125" viewBox="0 0 367.313 48.125"><defs><style>.a{fill:url(#a);}</style><linearGradient id="a" x1="0.011" y1="-0.382" x2="0.978" y2="-0.358" gradientUnits="objectBoundingBox"><stop offset="0" stop-color="#8ec5fc"/><stop offset="1" stop-color="#e0c3fc"/></linearGradient></defs><path class="a" d="M61.125-44.812,48.844,0H40.438L31.906-31.344a21.426,21.426,0,0,1-.656-4.375h-.125a21.23,21.23,0,0,1-.75,4.313L21.813,0H13.219L.688-44.812H8.844L16.969-12a23.9,23.9,0,0,1,.625,4.313h.156A24.467,24.467,0,0,1,18.625-12l9.188-32.812h7.656l8.5,33.063a25.819,25.819,0,0,1,.656,4h.125a24.558,24.558,0,0,1,.719-4.125l7.969-32.937ZM92-14.031H70.188a9.221,9.221,0,0,0,2.734,6.844,10.174,10.174,0,0,0,7.172,2.406A15.815,15.815,0,0,0,89.5-7.844V-2Q85.125.75,77.938.75q-7.063,0-11.078-4.359T62.844-15.875q0-7.469,4.422-12.172a14.464,14.464,0,0,1,10.984-4.7q6.563,0,10.156,4.219T92-16.812Zm-7-5.125a9.342,9.342,0,0,0-1.844-6.078,6.161,6.161,0,0,0-5-2.172,7.036,7.036,0,0,0-5.3,2.281,10.422,10.422,0,0,0-2.672,5.969ZM123.469,0h-7.031V-5h-.125A10.587,10.587,0,0,1,106.594.75,10.237,10.237,0,0,1,99.2-1.812a8.963,8.963,0,0,1-2.672-6.781q0-9.063,10.438-10.562l9.5-1.344q0-6.844-6.5-6.844a15.44,15.44,0,0,0-10.312,3.938V-29.75a22.489,22.489,0,0,1,11.688-3q12.125,0,12.125,11.938Zm-7-15.719-6.719.938a10.649,10.649,0,0,0-4.7,1.516q-1.578,1.109-1.578,3.891a4.259,4.259,0,0,0,1.453,3.328,5.627,5.627,0,0,0,3.891,1.3A7.179,7.179,0,0,0,114.3-7.078a8.254,8.254,0,0,0,2.172-5.859ZM149.188-.344A12.564,12.564,0,0,1,143.594.719q-9.312,0-9.312-8.937V-26.312h-5.344V-32h5.344v-7.406l7.25-2.062V-32h7.656v5.688h-7.656v16a6.3,6.3,0,0,0,1.031,4.063A4.281,4.281,0,0,0,146-5.031a4.984,4.984,0,0,0,3.188-1.062ZM183.875,0h-7.25V-17.5q0-9.5-6.344-9.5a6.635,6.635,0,0,0-5.375,2.75,10.946,10.946,0,0,0-2.187,7.031V0h-7.281V-47.375h7.281v20.688h.125a11.449,11.449,0,0,1,10.375-6.062q10.656,0,10.656,13.031Zm35.906-14.031H197.969A9.221,9.221,0,0,0,200.7-7.187a10.174,10.174,0,0,0,7.172,2.406,15.815,15.815,0,0,0,9.406-3.062V-2Q212.906.75,205.719.75q-7.062,0-11.078-4.359t-4.016-12.266q0-7.469,4.422-12.172a14.464,14.464,0,0,1,10.984-4.7q6.563,0,10.156,4.219t3.594,11.719Zm-7-5.125a9.342,9.342,0,0,0-1.844-6.078,6.161,6.161,0,0,0-5-2.172,7.036,7.036,0,0,0-5.3,2.281,10.422,10.422,0,0,0-2.672,5.969Zm32.469-5.937a6.01,6.01,0,0,0-3.781-1.031,6.473,6.473,0,0,0-5.375,2.906,13,13,0,0,0-2.156,7.906V0h-7.25V-32h7.25v6.594h.125a11.147,11.147,0,0,1,3.266-5.266,7.37,7.37,0,0,1,4.922-1.891,6.11,6.11,0,0,1,3,.594ZM282.438-1.875A27.167,27.167,0,0,1,269.844.75q-9.75,0-15.625-6.156t-5.875-16.156q0-10.75,6.609-17.375a22.611,22.611,0,0,1,16.7-6.625,27.374,27.374,0,0,1,10.781,1.844v7.375a19.239,19.239,0,0,0-10-2.687,15.7,15.7,0,0,0-11.8,4.656q-4.516,4.656-4.516,12.438,0,7.406,4.219,11.8A14.682,14.682,0,0,0,271.438-5.75a19.863,19.863,0,0,0,11-3ZM314.688,0h-7.031V-5h-.125A10.587,10.587,0,0,1,297.813.75a10.237,10.237,0,0,1-7.391-2.562,8.963,8.963,0,0,1-2.672-6.781q0-9.063,10.438-10.562l9.5-1.344q0-6.844-6.5-6.844a15.44,15.44,0,0,0-10.312,3.938V-29.75a22.489,22.489,0,0,1,11.688-3q12.125,0,12.125,11.938Zm-7-15.719-6.719.938a10.649,10.649,0,0,0-4.7,1.516q-1.578,1.109-1.578,3.891a4.259,4.259,0,0,0,1.453,3.328,5.627,5.627,0,0,0,3.891,1.3,7.179,7.179,0,0,0,5.484-2.328,8.255,8.255,0,0,0,2.172-5.859ZM321.531-1V-7.719A14.463,14.463,0,0,0,330.5-4.625q6.563,0,6.563-3.875a3.054,3.054,0,0,0-.562-1.859,5.37,5.37,0,0,0-1.516-1.359,11.915,11.915,0,0,0-2.25-1.062q-1.3-.469-2.891-1.062A30.6,30.6,0,0,1,326.3-15.5a10.716,10.716,0,0,1-2.625-1.984A7.491,7.491,0,0,1,322.094-20a9.263,9.263,0,0,1-.531-3.281,7.584,7.584,0,0,1,1.094-4.078,9.5,9.5,0,0,1,2.938-2.969,14.086,14.086,0,0,1,4.188-1.812,19.171,19.171,0,0,1,4.844-.609,22.019,22.019,0,0,1,7.938,1.344v6.344a13.381,13.381,0,0,0-7.75-2.312,10.121,10.121,0,0,0-2.484.281,6.412,6.412,0,0,0-1.891.781,3.843,3.843,0,0,0-1.219,1.2,2.871,2.871,0,0,0-.437,1.547,3.306,3.306,0,0,0,.438,1.75,3.974,3.974,0,0,0,1.3,1.266,11.2,11.2,0,0,0,2.063,1q1.2.453,2.766.984a40.406,40.406,0,0,1,3.7,1.719,12.514,12.514,0,0,1,2.8,1.984,7.779,7.779,0,0,1,1.781,2.563,8.7,8.7,0,0,1,.625,3.453,7.893,7.893,0,0,1-1.125,4.25,9.377,9.377,0,0,1-3,3A14.043,14.043,0,0,1,335.8.172a22.485,22.485,0,0,1-5.172.578A21.79,21.79,0,0,1,321.531-1ZM368-.344A12.564,12.564,0,0,1,362.406.719q-9.313,0-9.312-8.937V-26.312H347.75V-32h5.344v-7.406l7.25-2.062V-32H368v5.688h-7.656v16a6.3,6.3,0,0,0,1.031,4.063,4.281,4.281,0,0,0,3.438,1.219A4.984,4.984,0,0,0,368-6.094Z" transform="translate(-0.688 47.375)"/></svg>